<svg width="73" height="74" viewBox="0 0 73 74" fill="none" xmlns="http://www.w3.org/2000/svg">
<path d="M20.24 3.0462C14.418 5.59834 9.25198 9.71469 6.13598 14.7366C-1.65402 27.3327 -1.57202 46.4326 11.63 55.4062C27.62 66.2734 55.91 60.7575 57.796 38.5292C59.682 16.1362 44.266 -7.32702 20.24 3.0462Z" fill="#F7BC28"/>
<path d="M22.946 9.55002C18.6 11.4435 14.828 14.4896 12.532 18.1944C6.70996 27.5797 6.79196 41.7399 16.632 48.4084C28.522 56.4765 49.514 52.3601 50.908 35.8947C52.22 19.3469 40.822 1.8936 22.946 9.55002Z" fill="#FBFAF7"/>
<path d="M42.708 52.6893C46.726 57.7936 49.186 60.2634 52.958 63.3918C55.664 65.6146 58.37 67.8375 60.994 70.0603C63.208 71.8715 65.832 73.8474 68.62 73.3534C71.572 72.8594 73.622 69.4017 72.638 66.5202C72.31 65.5323 71.654 64.6267 70.916 63.8034C65.832 57.2996 59.928 51.4544 53.368 46.3501L42.708 52.6893Z" fill="#F7BC28"/>
<path d="M57.14 66.7672L66.57 58.4521L68.374 60.5103L59.19 68.4137L57.14 66.7672Z" fill="#E48929"/>
<path d="M60.4199 69.5664L69.3579 61.8276L70.9159 63.8035L62.3059 71.1306L60.4199 69.5664Z" fill="#E48929"/>
</svg>
