<svg width="30" height="24" viewBox="0 0 30 24" fill="none" xmlns="http://www.w3.org/2000/svg">
<path d="M30 3.25392C28.8844 3.70514 27.6956 4.00423 26.4562 4.14945C27.7312 3.44754 28.7044 2.34456 29.1619 1.01509C27.9731 1.66859 26.6606 2.13018 25.2619 2.38778C24.1331 1.2796 22.5244 0.593262 20.7694 0.593262C17.3644 0.593262 14.6231 3.14154 14.6231 6.26552C14.6231 6.71502 14.6644 7.14722 14.7656 7.55868C9.6525 7.32875 5.12813 5.06918 2.08875 1.6271C1.55812 2.47595 1.24688 3.44754 1.24688 4.49348C1.24688 6.45742 2.34375 8.1983 3.97875 9.2062C2.99062 9.189 2.02125 8.9244 1.2 8.5078C1.2 8.5251 1.2 8.5476 1.2 8.57C1.2 11.3258 3.33187 13.6147 6.1275 14.142C5.62687 14.2682 5.08125 14.3287 4.515 14.3287C4.12125 14.3287 3.72375 14.308 3.35062 14.2319C4.1475 16.4777 6.40875 18.1287 9.0975 18.1823C7.005 19.6915 4.34812 20.6009 1.47188 20.6009C0.9675 20.6009 0.48375 20.5802 0 20.5231C2.72438 22.143 5.95312 23.0679 9.435 23.0679C20.7525 23.0679 26.94 14.4238 26.94 6.93112C26.94 6.68044 26.9306 6.43841 26.9175 6.1981C28.1381 5.39938 29.1637 4.40185 30 3.25392Z" fill="#198C36"/>
</svg>
